<?xml version="1.0" standalone="no"?>
<!DOCTYPE svg PUBLIC "-//W3C//DTD SVG 20010904//EN"
 "http://www.w3.org/TR/2001/REC-SVG-20010904/DTD/svg10.dtd">
<svg version="1.0" xmlns="http://www.w3.org/2000/svg"
 width="16.000000pt" height="16.000000pt" viewBox="0 0 16.000000 16.000000"
 preserveAspectRatio="xMidYMid meet">
<metadata>
Created by potrace 1.11, written by Peter Selinger 2001-2013
</metadata>
<g transform="translate(0.000000,16.000000) scale(0.001333,-0.001333)"
fill="#000000" stroke="none">
<path d="M4894 9222 l-42 -3 0 -485 -1 -484 1015 0 1015 0 -4 -1762 c-3 -1756
-3 -1763 -24 -1858 -39 -174 -89 -293 -168 -405 -146 -205 -411 -362 -662
-392 -260 -31 -519 18 -776 149 -130 66 -335 202 -409 271 -7 6 -43 37 -78 67
-36 30 -71 63 -78 72 -7 10 -19 18 -25 18 -7 -1 -34 -32 -62 -71 -27 -39 -72
-101 -100 -139 -27 -38 -75 -103 -105 -146 -30 -42 -100 -139 -155 -215 -55
-77 -122 -169 -148 -206 l-48 -68 73 -70 c40 -39 120 -108 178 -153 58 -45
111 -87 118 -93 29 -24 201 -129 282 -172 189 -101 471 -204 647 -237 32 -5
69 -12 83 -15 200 -41 489 -57 709 -40 130 10 175 16 306 41 295 55 621 214
855 415 233 201 379 407 493 694 30 76 80 230 92 285 23 107 41 202 51 269 4
25 8 55 10 66 16 87 19 469 19 2434 l0 2234 -1510 1 c-830 1 -1529 0 -1551 -2z"/>
</g>
</svg>
